# xmcd
#
# Track frame offsets: 
#        150
#        16537
#        37173
#        59169
#        77619
#        100002
#        115553
#        136994
#        159062
#        184035
#
# Disc length: 3021 seconds
#
# Revision: 0
# Processed by: cddbd v1.5.1PL2 Copyright (c) Steve Scherf et al.
# Submitted via: ExactAudioCopy v0.95b3
#
DISCID=6f0bcb0a
DTITLE=the gonstermachers - the gonstermachers
DYEAR=2006
DGENRE=Blues
TTITLE0=the night sam cooke died
TTITLE1=my sister she's not a dollar
TTITLE2=danse les macher
TTITLE3=cool down here
TTITLE4=left handed man
TTITLE5=lowdown on the blowdown
TTITLE6=danse les negres
TTITLE7=saint sebastian
TTITLE8=gasstationchickendinnerromance
TTITLE9=saint james infirmary
EXTD=
EXTT0=
EXTT1=
EXTT2=
EXTT3=
EXTT4=
EXTT5=
EXTT6=
EXTT7=
EXTT8=
EXTT9=
PLAYORDER=
